Coordinates
version=1
nRows=19
nColumns=24
inDegrees=yes

Units are S.I. units (second, meters, Newtons, ...)
Angles are in degrees.

endheader
time	pelvis_tilt	pelvis_list	pelvis_rotation	pelvis_tx	pelvis_ty	pelvis_tz	hip_flexion_r	hip_adduction_r	hip_rotation_r	knee_angle_r	ankle_angle_r	subtalar_angle_r	mtp_angle_r	hip_flexion_l	hip_adduction_l	hip_rotation_l	knee_angle_l	ankle_angle_l	subtalar_angle_l	mtp_angle_l	lumbar_extension	lumbar_bending	lumbar_rotation
      2.29500000	     22.06080511	      0.57093112	     15.01922802	      0.92460517	      0.88606897	     -0.01461789	    -35.14716597	      6.89268168	    -17.86193784	    -33.60477357	     -5.79156631	     19.58513654	     50.82922755	     -4.30835892	      5.82083729	     40.86506868	    -14.90072767	    -13.51692675	    -42.84822805	     14.68564148	    -26.96167320	      2.62443195	     -9.20282483
      2.30000000	     21.97993556	      0.81706415	     15.03556519	      0.93151007	      0.88717432	     -0.01513745	    -34.52300581	      6.17622224	    -18.86752196	    -35.23948760	     -6.82990163	     19.21142710	     50.76712916	     -4.89506905	      5.89828460	     40.79578260	    -14.61599405	    -13.18777623	    -42.87656023	     14.69521865	    -26.83958117	      2.29008961	     -9.38179040
      2.30500000	     21.89174927	      1.01860603	     15.06061299	      0.93835214	      0.88826200	     -0.01569588	    -33.87637387	      5.49997412	    -19.77498928	    -36.82437082	     -7.73022050	     18.60203855	     50.58937323	     -5.47570375	      5.92500815	     40.80549797	    -14.29806717	    -12.80968719	    -42.84449981	     14.71818458	    -26.70206180	      2.01063036	     -9.53972124
      2.31000000	     21.86169132	      1.19888632	     15.00098457	      0.94516914	      0.88943769	     -0.01610007	    -33.28140290	      4.81956222	    -20.52321166	    -38.35263271	     -8.44288025	     17.77934214	     50.27769672	     -6.13926500	      5.89338592	     40.67240520	    -13.90008757	    -12.44988798	    -42.82008762	     14.76447360	    -26.62864171	      1.73269080	     -9.60862601
      2.31500000	     21.84735512	      1.34032972	     14.89070246	      0.95201529	      0.89064153	     -0.01641057	    -32.69536025	      4.16952200	    -21.12356810	    -39.80568738	     -8.95974439	     16.76437083	     49.78486109	     -6.83103196	      5.80345485	     40.44521286	    -13.44048854	    -12.05408921	    -42.78592342	     14.83581226	    -26.55926590	      1.47742628	     -9.62235717
      2.32000000	     21.89124250	      1.45734473	     14.71951671	      0.95882554	      0.89190708	     -0.01661746	    -32.15257849	      3.52378284	    -21.60104801	    -41.23189975	     -9.13452255	     16.08933797	     46.05917905	     -7.56852926	      5.67234542	     40.02707627	    -12.99313612	    -11.38205986	    -42.35739224	     15.38095812	    -26.54933225	      1.23957448	     -9.56618666
      2.32500000	     21.89925331	      1.51974573	     14.52107241	      0.96559508	      0.89312798	     -0.01681114	    -31.54165640	      2.92807012	    -21.95844599	    -42.57200595	     -9.26793412	     14.88199009	     45.76455290	     -8.32032525	      5.47874267	     39.74709823	    -12.37405315	    -11.21015043	    -42.58420263	     15.41244487	    -26.49039366	      1.04544150	     -9.46538213
      2.33000000	     21.96862131	      1.54715641	     14.28001088	      0.97233830	      0.89441210	     -0.01691207	    -30.98182862	      2.38428901	    -22.19252803	    -43.81757190	     -9.25556296	     13.59484428	     45.33155861	     -9.13560957	      5.23106964	     39.35662106	    -11.72747481	    -10.95566516	    -42.69042698	     15.50552145	    -26.48981011	      0.88606385	     -9.30693890
      2.33500000	     22.06869766	      1.53878776	     14.01402593	      0.97900695	      0.89569064	     -0.01695813	    -30.42102503	      1.87801403	    -22.34747310	    -45.04251052	     -8.87739665	     12.55621141	     41.58226544	     -9.94589062	      4.95430140	     38.81083595	    -11.15117980	    -10.40001057	    -42.35418255	     16.67228559	    -26.51778904	      0.76368459	     -9.08999727
      2.34000000	     22.18768265	      1.46963071	     13.68163339	      0.98564042	      0.89699865	     -0.01691780	    -29.84896464	      1.43763483	    -22.33772921	    -46.14249762	     -8.57794463	     11.15113678	     41.28515696	    -10.83012712	      4.60014900	     38.30370768	    -10.39231406	    -10.28696464	    -42.55548138	     16.74666299	    -26.55504343	      0.68667636	     -8.78884406
      2.34500000	     22.32301666	      1.36440820	     13.32706134	      0.99222420	      0.89829814	     -0.01681651	    -29.26905263	      1.05240873	    -22.24589988	    -47.16650428	     -8.11535351	      9.67665970	     40.84325405	    -11.73039178	      4.21162002	     37.71449310	     -9.62095204	    -10.06293067	    -42.58391331	     16.89836641	    -26.60379587	      0.64205208	     -8.45673007
      2.35000000	     22.44771170	      1.21863694	     12.94275712	      0.99875564	      0.89954196	     -0.01663696	    -28.64143905	      0.71504313	    -22.05811463	    -48.15688810	     -7.32082843	      8.43662435	     38.07492747	    -12.56242935	      3.81584442	     36.90367297	     -8.96473838	     -9.44240007	    -41.99952441	     18.10364126	    -26.63954674	      0.62446767	     -8.09824396
      2.35500000	     22.63229158	      1.02486456	     12.52519971	      1.00520705	      0.90084315	     -0.01641668	    -28.05737389	      0.46102644	    -21.76266029	    -49.00902867	     -6.61720288	      6.93255999	     37.75625426	    -13.53987637	      3.34316593	     36.24034153	     -8.08992908	     -9.39326496	    -42.14426210	     18.18902286	    -26.73704028	      0.66175279	     -7.65857218
      2.36000000	     22.80706582	      0.77397041	     12.12152006	      1.01158277	      0.90209372	     -0.01617522	    -27.43903606	      0.31167686	    -21.39529967	    -49.76259316	     -5.77235250	      5.33553984	     37.15463412	    -14.47348128	      2.83387714	     35.49149775	     -7.27385736	     -9.12055010	    -41.98615619	     18.45560278	    -26.81791157	      0.76054881	     -7.24906768
      2.36500000	     22.94274865	      0.48689617	     11.62785098	      1.01791099	      0.90325401	     -0.01580057	    -26.72731589	      0.16259849	    -20.90783796	    -50.51014375	     -4.75166748	      4.04871532	     35.29949269	    -15.31637021	      2.35310444	     34.43935591	     -6.58392014	     -8.48579540	    -41.14301737	     19.37846233	    -26.85892048	      0.85285090	     -6.70972092
      2.37000000	     23.14814963	      0.17352767	     11.12452615	      1.02411755	      0.90445264	     -0.01542534	    -26.08106598	      0.08789353	    -20.35376450	    -51.12787973	     -3.81463314	      2.61269080	     34.97262400	    -16.31087168	      1.82988906	     33.56767389	     -5.69852603	     -8.42174338	    -41.19050101	     19.47633682	    -26.98566135	      0.98782476	     -6.13089914
      2.37500000	     23.33177635	     -0.20832346	     10.67510281	      1.03025479	      0.90559612	     -0.01506635	    -25.40481283	      0.16366698	    -19.75701235	    -51.60994163	     -2.81653448	      0.99156443	     34.35027674	    -17.24643561	      1.25218720	     32.65843882	     -4.88701238	     -8.10748760	    -40.82711000	     19.77084040	    -27.08119355	      1.20763914	     -5.62552988
      2.38000000	     23.49588214	     -0.60156837	     10.13441788	      1.03632754	      0.90666258	     -0.01458853	    -24.67212687	      0.21752477	    -19.05545057	    -52.08629047	     -1.62806557	     -0.09676195	     32.46362304	    -18.11706890	      0.73849022	     31.42692905	     -4.22095297	     -7.35839677	    -39.75592041	     20.71101330	    -27.17005728	      1.39990245	     -4.98188266
      2.38500000	     23.64207527	     -1.02346121	      9.63699960	      1.04228419	      0.90765540	     -0.01417389	    -23.91687843	      0.36528209	    -18.34391879	    -52.43820830	     -0.60434545	     -1.60425239	     32.04043640	    -19.02455924	      0.19299366	     30.47619549	     -3.39962149	     -7.28020184	    -39.61888168	     20.84505217	    -27.25389809	      1.64142644	     -4.39100053
